<svg width="43" height="9" fill="none" xmlns="http://www.w3.org/2000/svg"><path d="M37.67 2.001l1.358 3.81h-2.756L37.671 2zM36.219.518l-3.127 8.13H35.3l.494-1.437h3.701l.468 1.437h2.397L39.21.517l-2.991.001zM29.94 8.651h2.24V.516L29.94.515v8.136zM14.387.515l-1.869 6.448-1.79-6.447L8.31.515l2.557 8.136h3.227L16.673.515h-2.286zm9.056 1.772h.963c1.396 0 2.3.643 2.3 2.313 0 1.67-.904 2.314-2.3 2.314h-.963V2.287zM21.22.515v8.136h3.632c1.935 0 2.567-.33 3.25-1.07.483-.52.795-1.661.795-2.909 0-1.143-.264-2.163-.725-2.798C27.343.737 26.148.515 24.364.515h-3.143zM0 .504V8.65h2.26V2.465h1.75c.58 0 .993.148 1.272.454.354.387.498 1.012.498 2.154v3.578h2.19V4.15C7.97.937 5.973.504 4.02.504H0zm17.616.011v8.136h2.24V.515h-2.24z" fill="#fff"/></svg>