<svg width="33" height="22" fill="none" xmlns="http://www.w3.org/2000/svg"><path d="M4.02 9.315s2.882-4.362 8.635-4.813V2.919C6.283 3.444.765 8.982.765 8.982s3.125 9.271 11.89 10.12V17.42c-6.432-.83-8.634-8.105-8.634-8.105zm8.635 4.76v1.54c-4.861-.89-6.21-6.075-6.21-6.075s2.333-2.653 6.21-3.083v1.69h-.007c-2.035-.251-3.624 1.7-3.624 1.7s.89 3.283 3.631 4.227zm0-14.075v2.92c.187-.016.374-.028.562-.035 7.245-.25 11.965 6.097 11.965 6.097s-5.421 6.765-11.07 6.765c-.517 0-1.002-.05-1.457-.132v1.805c.39.05.793.08 1.214.08 5.256 0 9.057-2.754 12.738-6.014.61.502 3.108 1.722 3.622 2.256-3.5 3.006-11.656 5.43-16.28 5.43-.445 0-.873-.028-1.294-.07v2.537h19.978V0H12.655zm0 6.457V4.502c.185-.013.372-.024.562-.03 5.21-.168 8.628 4.594 8.628 4.594s-3.692 5.26-7.65 5.26c-.57 0-1.08-.093-1.54-.252V8.147c2.028.252 2.436 1.171 3.656 3.257l2.711-2.347s-1.98-2.664-5.316-2.664c-.363 0-.71.026-1.05.064z" fill="#77B900"/></svg>