<svg width="30" height="24" fill="none" xmlns="http://www.w3.org/2000/svg"><path d="M30 2.85c-1.126.486-2.32.802-3.54.938A5.898 5.898 0 0029.162.45a12.182 12.182 0 01-3.904 1.463A6.16 6.16 0 0023.261.518a6.245 6.245 0 00-4.802-.076 6.171 6.171 0 00-2.043 1.33 5.834 5.834 0 00-1.35 1.959 5.759 5.759 0 00-.45 2.325c.003.466.055.93.156 1.386A17.342 17.342 0 017.696 5.58a17.385 17.385 0 01-5.609-4.472 5.864 5.864 0 00-.837 3.056 5.829 5.829 0 00.742 2.89 6.085 6.085 0 002 2.155 6.17 6.17 0 01-2.78-.77v.075a5.798 5.798 0 001.399 3.852 6.065 6.065 0 003.531 2.09 6.458 6.458 0 01-1.618.207 7.951 7.951 0 01-1.156-.095 6.071 6.071 0 002.192 3.006 6.226 6.226 0 003.557 1.194 12.159 12.159 0 01-7.634 2.587c-.495.003-.99-.022-1.483-.074A17.27 17.27 0 009.44 24a18.253 18.253 0 006.147-1.021 15.698 15.698 0 004.912-2.738 18.398 18.398 0 003.513-3.947 17.465 17.465 0 002.198-4.659 16.961 16.961 0 00.706-5.654A12.77 12.77 0 0030 2.851z" fill="#77B900"/></svg>